<?xml version="1.0" standalone="no"?>
<!DOCTYPE svg PUBLIC "-//W3C//DTD SVG 20010904//EN"
 "http://www.w3.org/TR/2001/REC-SVG-20010904/DTD/svg10.dtd">
<svg version="1.0" xmlns="http://www.w3.org/2000/svg"
 width="512.000000pt" height="512.000000pt" viewBox="0 0 512.000000 512.000000"
 preserveAspectRatio="xMidYMid meet">
<metadata>
Created by potrace 1.14, written by Peter Selinger 2001-2017
</metadata>
<g transform="translate(0.000000,512.000000) scale(0.100000,-0.100000)"
fill="#000000" stroke="none">
<path d="M2809 5104 c-365 -55 -666 -218 -918 -498 -168 -187 -321 -504 -347
-718 -3 -22 -9 -61 -14 -86 -9 -50 -6 -359 5 -407 3 -16 13 -63 21 -103 32
-157 114 -347 217 -505 30 -46 60 -100 66 -120 14 -43 8 -98 -18 -147 -22 -43
-112 -106 -170 -119 -44 -9 -175 -8 -220 3 -125 29 -276 99 -450 205 -191 117
-275 141 -417 119 -181 -28 -333 -171 -374 -352 -43 -193 -58 -680 -26 -852 2
-11 7 -44 11 -74 11 -87 42 -221 76 -327 152 -475 474 -812 939 -981 81 -30
255 -79 309 -88 14 -3 37 -7 51 -9 31 -6 162 -23 255 -33 92 -9 1148 -9 1245
0 78 8 106 12 205 28 477 78 894 308 1143 630 82 106 117 160 167 261 40 78
130 319 120 319 -2 0 1 15 6 33 33 113 50 432 29 547 -4 25 -10 65 -13 90 -27
224 -168 582 -302 770 -59 82 -83 133 -79 166 2 16 23 73 48 125 52 111 91
226 108 314 l11 64 116 69 c64 38 132 75 151 82 80 30 117 50 147 82 121 126
64 352 -102 398 l-44 12 39 72 c51 94 69 162 66 261 -4 122 -52 192 -147 215
-63 15 -97 9 -174 -34 -86 -48 -137 -66 -210 -73 l-61 -5 -44 64 c-56 80 -174
204 -265 278 -206 168 -457 280 -730 325 -76 13 -339 12 -426 -1z"/>
</g>
</svg>
